/* XPM */
static char *fba1a4994f134b09aaff00df3b2143be[] = {
/* columns rows colors chars-per-pixel */
"64 64 2 1 ",
"  c #1B75BC",
". c None",
/* pixels */
".........................              .........................",
"......................                    ......................",
"...................                          ...................",
".................                              .................",
"...............                                  ...............",
"..............                                    ..............",
"............                                        ............",
"...........                ..........                ...........",
"..........              ................              ..........",
".........            ......................            .........",
"........           ..........................           ........",
".......           ............................           .......",
"......          ................................          ......",
"......         ......................       .....         ......",
".....         .......................      .......         .....",
"....         .......................       ........         ....",
"....        ........................      ..........        ....",
"...         .......................       ..........         ...",
"...        ..............                                    ...",
"..        ............                                        ..",
"..        ...........                                         ..",
"..       ...........                                          ..",
".        ..........                                            .",
".        .........                                             .",
".       ..........                                             .",
"        ..........        ..............................        ",
"        .........         ..............................        ",
"       ..........        ................................       ",
"       .........         ................................       ",
"       .........         ................................       ",
"       ........                                 .........       ",
"       ........                                  ........       ",
"       ........                                   .......       ",
"       ........                                   .......       ",
"       ........                                  ........       ",
"       .........                                 ........       ",
"       .................................         ........       ",
"        ................................        ........        ",
"        ...............................         ........        ",
".       ...............................        .........       .",
".        .............................         ........        .",
".                                             .........        .",
"..                                            .........       ..",
"..                                           .........        ..",
"..                                          ..........        ..",
"...                                        ..........        ...",
"...                                      ...........         ...",
"....         ...........       .....................        ....",
"....         ...........      .....................         ....",
".....         .........       ....................         .....",
"......         ........      ....................         ......",
"......          ......       ...................          ......",
".......           ............................           .......",
"........           ..........................           ........",
".........            ......................            .........",
"..........              ................              ..........",
"...........                ..........                ...........",
"............                                        ............",
"..............                                    ..............",
"...............                                  ...............",
".................                              .................",
"...................                          ...................",
"......................                    ......................",
".........................              ........................."
};
