/* XPM */
static char *_6aba34d515049a29adebc0fb0a6b21e[] = {
/* columns rows colors chars-per-pixel */
"16 16 2 1 ",
"  c #0F75BC",
". c None",
/* pixels */
".....      .....",
"...          ...",
"..   ......   ..",
".   .....  .   .",
".  ...         .",
"  ...           ",
"  ..   .......  ",
"  ..        ..  ",
"  ..         .  ",
"  .......   ..  ",
"            ..  ",
".          ..  .",
".   ..  ....   .",
"..   ......   ..",
"...          ...",
".....      ....."
};
