/* XPM */
static char *_9cee7ab7b634c32b3c69c453817f313[] = {
/* columns rows colors chars-per-pixel */
"32 32 2 1 ",
"  c #1B75BC",
". c None",
/* pixels */
"...........          ...........",
".........              .........",
".......                  .......",
"......                    ......",
".....      ..........      .....",
"....     ..............     ....",
"...     ...........  ...     ...",
"..     ...........    ...     ..",
"..    ............   .....    ..",
".    ......                    .",
".    .....                     .",
"    .....                       ",
"    .....                       ",
"    ....     ...............    ",
"    ....     ...............    ",
"    ....                 ...    ",
"    ...                  ...    ",
"    ....                 ...    ",
"    ................    ....    ",
"    ...............     ....    ",
"                       .....    ",
".                      ....    .",
".                     .....    .",
"..                  ......    ..",
"..     .....   ..........     ..",
"...     ...    .........     ...",
"....     ..............     ....",
".....      ..........      .....",
"......                    ......",
".......                  .......",
".........              .........",
"...........          ..........."
};
