/* XPM */
static char *e3830ac526b144d6f874f3caab85fd12[] = {
/* columns rows colors chars-per-pixel */
"128 128 2 1 ",
"  c #0F75BC",
". c None",
/* pixels */
"......................................................                    ......................................................",
".................................................                              .................................................",
"..............................................                                    ..............................................",
"...........................................                                          ...........................................",
"........................................                                                ........................................",
"......................................                                                     .....................................",
"...................................                                                          ...................................",
".................................                                                              .................................",
"................................                                                                ................................",
"..............................                                                                    ..............................",
"............................                                                                        ............................",
"...........................                                                                          ...........................",
"..........................                                                                            ..........................",
"........................                                                                                ........................",
".......................                                 ................                                 .......................",
"......................                             ..........................                             ......................",
".....................                           ................................                           .....................",
"....................                         ......................................                         ....................",
"...................                        ..........................................                        ...................",
"..................                       ..............................................                       ..................",
".................                      ..................................................                      .................",
"................                      ....................................................                      ................",
"...............                     ........................................................                     ...............",
"..............                     ..........................................................                     ..............",
".............                    ..............................................................                    .............",
".............                   ................................................................                   .............",
"............                   ............................................            ..........                   ............",
"...........                   .............................................            ...........                   ...........",
"..........                   .............................................            .............                   ..........",
"..........                  ..............................................            ..............                  ..........",
".........                  ..............................................            ................                  .........",
".........                 ...............................................            .................                 .........",
"........                 ...............................................            ...................                 ........",
".......                 ................................................            ....................                 .......",
".......                 ...............................................            .....................                 .......",
"......                 ................................................            ......................                 ......",
"......                ................................................             .......................                ......",
".....                 ..........................                                                                          ......",
".....                .........................                                                                             .....",
".....               ........................                                                                               .....",
"....                .......................                                                                                 ....",
"....               .......................                                                                                  ....",
"....               ......................                                                                                   ....",
"...               ......................                                                                                     ...",
"...               .....................                                                                                      ...",
"...              .....................                                                                                       ...",
"..               ....................                                                                                         ..",
"..               ....................                                                                                         ..",
"..              ....................                                                                                          ..",
".               ....................                                                                                           .",
".               ...................                 ............................................................               .",
".              ....................                 .............................................................              .",
".              ....................                ..............................................................              .",
".              ...................                 ..............................................................              .",
"               ...................                ...............................................................               ",
"               ..................                 ...............................................................               ",
"              ...................                 ................................................................              ",
"              ..................                 .................................................................              ",
"              ..................                 .................................................................              ",
"              .................                                                             ......................              ",
"              .................                                                                 ..................              ",
"              .................                                                                  .................              ",
"              ................                                                                    ................              ",
"              ................                                                                    ................              ",
"              ................                                                                     ...............              ",
"              ................                                                                     ...............              ",
"              ................                                                                     ...............              ",
"              ................                                                                     ...............              ",
"              ................                                                                     ...............              ",
"              .................                                                                   ................              ",
"              .................                                                                   ................              ",
"              ...................                                                                 ................              ",
"               .....................                                                             ................               ",
"               .................................................................                 ................               ",
".              .................................................................                .................              .",
".              ................................................................                 .................              .",
".              ................................................................                 .................              .",
".               ..............................................................                 .................               .",
".               ..............................................................                 .................               .",
"..              .............................................................                 ..................              ..",
"..               ............................................................                 .................               ..",
"..               ...........................................................                 ..................               ..",
"...                                                                                          ..................              ...",
"...                                                                                         ..................               ...",
"...                                                                                         ..................               ...",
"....                                                                                       ..................               ....",
"....                                                                                      ...................               ....",
"....                                                                                     ...................                ....",
".....                                                                                   ....................               .....",
".....                                                                                  ....................                .....",
"......                                                                                ....................                ......",
"......                                                                              ......................                ......",
"......                                                                             ......................                 ......",
".......                                                                         ........................                 .......",
".......                  ........................            ...........................................                 .......",
"........                 .......................             ..........................................                 ........",
".........                 ......................            ..........................................                 .........",
".........                  ....................             .........................................                  .........",
"..........                  ...................            .........................................                  ..........",
"..........                   .................             ........................................                   ..........",
"...........                   ................            ........................................                   ...........",
"............                   ..............             .......................................                   ............",
".............                   .............            .......................................                   .............",
".............                    ............            ......................................                    .............",
"..............                     ..........................................................                     ..............",
"...............                     ........................................................                     ...............",
"................                      ....................................................                      ................",
".................                      ..................................................                      .................",
"..................                       ..............................................                       ..................",
"...................                        ..........................................                        ...................",
"....................                         ......................................                         ....................",
".....................                           ................................                           .....................",
"......................                             ..........................                             ......................",
".......................                                 ................                                 .......................",
"........................                                                                                ........................",
"..........................                                                                            ..........................",
"...........................                                                                          ...........................",
"............................                                                                        ............................",
"..............................                                                                    ..............................",
"................................                                                                ................................",
".................................                                                              .................................",
"...................................                                                          ...................................",
"......................................                                                    ......................................",
"........................................                                                ........................................",
"...........................................                                          ...........................................",
"..............................................                                    ..............................................",
".................................................                              .................................................",
"......................................................                    ......................................................"
};
